<?xml version="1.0" encoding="utf-8"?>
<!-- Generator: Adobe Illustrator 24.3.0, SVG Export Plug-In . SVG Version: 6.00 Build 0)  -->
<svg version="1.1" id="Layer_1" xmlns="http://www.w3.org/2000/svg" xmlns:xlink="http://www.w3.org/1999/xlink" x="0px" y="0px"
	 viewBox="0 0 32 32" style="enable-background:new 0 0 32 32;" xml:space="preserve">
<style type="text/css">
	.Blue{fill:#1177D7;}
	.Black{fill:#727272;}
	.Red{fill:#D11C1C;}
	.Green{fill:#039C23;}
	.Yellow{fill:#FFB115;}
	.st0{opacity:0.5;}
	.st1{fill:#FFFFFF;}
</style>
<g class="st0">
	<path class="Green" d="M26,22c-2.4,0-4.1-3.1-6.4-7.8C16.9,8.8,13.5,2,6,2v8c2.4,0,4.1,3.1,6.4,7.8C15.1,23.2,18.5,30,26,30V22z"/>
</g>
<rect x="2" y="2" class="Green" width="2" height="8"/>
<rect x="2" y="12" class="Blue" width="2" height="8"/>
<rect x="2" y="22" class="Blue" width="2" height="8"/>
<rect x="28" y="2" class="Blue" width="2" height="18"/>
<rect x="28" y="22" class="Green" width="2" height="8"/>
<g class="st0">
	<path class="Blue" d="M6,12c0,2,0,8,0,8c7.6,0,12.5-8.2,19-8.9C18.4,12,11.7,22,6,22c0,2,0,8,0,8c8,0,14-10,20-10c0-4,0-16,0-18
		C18,2,12,12,6,12z"/>
</g>
</svg>
