<?xml version="1.0" encoding="utf-8"?>
<!-- Generator: Adobe Illustrator 24.3.0, SVG Export Plug-In . SVG Version: 6.00 Build 0)  -->
<svg version="1.1" id="Layer_1" xmlns="http://www.w3.org/2000/svg" xmlns:xlink="http://www.w3.org/1999/xlink" x="0px" y="0px"
	 viewBox="0 0 32 32" style="enable-background:new 0 0 32 32;" xml:space="preserve">
<style type="text/css">
	.Blue{fill:#1177D7;}
	.Black{fill:#727272;}
	.Red{fill:#D11C1C;}
	.Green{fill:#039C23;}
	.Yellow{fill:#FFB115;}
	.st0{opacity:0.5;}
	.st1{fill:#FFFFFF;}
</style>
<path class="Blue" d="M19.2,17.8l2.9,2.9c1.1-1.4,1.7-3,1.9-4.6h-4C19.8,16.6,19.6,17.2,19.2,17.8z"/>
<path class="Blue" d="M20.6,22l-2.9-2.9c-1.7,1.1-3.8,1.1-5.5,0L9.4,22C12.7,24.7,17.4,24.7,20.6,22z"/>
<path class="Blue" d="M16,6.1l0,4c1,0.2,1.9,0.6,2.6,1.4c0.7,0.7,1.2,1.6,1.4,2.5h4c-0.2-2-1.1-3.9-2.6-5.4
	C19.9,7.1,17.9,6.3,16,6.1z"/>
<path class="Blue" d="M8,23.5l-2.8,2.8c5.6,4.9,14.1,4.9,19.7,0l-2.8-2.8C18,26.9,12.1,26.9,8,23.5z"/>
<path class="Blue" d="M25.6,4.4c-2.7-2.7-6.1-4.1-9.7-4.3l0,4c2.5,0.2,4.9,1.3,6.8,3.2c1.9,1.9,2.9,4.3,3.2,6.8h4
	C29.7,10.5,28.3,7.1,25.6,4.4z"/>
<path class="Yellow" d="M6.6,8L3.7,5.2c-4.9,5.6-4.9,14.1,0,19.7L6.6,22C3.2,18,3.2,12,6.6,8z"/>
<path class="Yellow" d="M14,10.1l0-4.1C12,6.3,10.1,7.2,8.7,8.6c-3.3,3.3-3.5,8.4-0.7,12l2.9-2.9c-1.3-1.9-1.1-4.6,0.6-6.3
	C12.2,10.8,13.1,10.3,14,10.1z"/>
</svg>
