<?xml version="1.0" encoding="utf-8"?>
<!-- Generator: Adobe Illustrator 24.3.0, SVG Export Plug-In . SVG Version: 6.00 Build 0)  -->
<svg version="1.1" id="Layer_1" xmlns="http://www.w3.org/2000/svg" xmlns:xlink="http://www.w3.org/1999/xlink" x="0px" y="0px"
	 viewBox="0 0 32 32" style="enable-background:new 0 0 32 32;" xml:space="preserve">
<style type="text/css">
	.Yellow{fill:#FFB115;}
	.Black{fill:#727272;}
	.Blue{fill:#1177D7;}
</style>
<polygon class="Black" points="8,16 8,14 4,14 4,10 2,10 2,26 4,26 8,26 8,24 4,24 4,16 "/>
<path class="Yellow" d="M10,7c0,0.5-0.5,1-1,1H1C0.5,8,0,7.5,0,7V3c0-0.5,0.5-1,1-1h8c0.5,0,1,0.5,1,1V7z M10,17c0,0.5,0.5,1,1,1
	h4.1c1.1-1.8,2.8-3.2,4.9-3.7V13c0-0.5-0.5-1-1-1h-8c-0.5,0-1,0.5-1,1V17z M14,22h-3c-0.5,0-1,0.5-1,1v4c0,0.5,0.5,1,1,1h5.7
	C15.1,26.5,14,24.4,14,22z"/>
<path class="Blue" d="M31.5,29l-4.1-4.2C27.8,23.9,28,23,28,22c0-3.3-2.7-6-6-6c-1,0-1.9,0.2-2.7,0.7l4.2,4.2c0.7,0.7,0.7,1.9,0,2.6
	s-1.9,0.7-2.6,0l-4.2-4.2C16.2,20.1,16,21,16,22c0,3.3,2.7,6,6,6c1,0,1.9-0.2,2.7-0.7l4.1,4.2c0.7,0.7,1.9,0.7,2.6,0
	C32.2,30.9,32.2,29.7,31.5,29z"/>
</svg>
