<?xml version="1.0" encoding="utf-8"?>
<!-- Generator: Adobe Illustrator 24.3.0, SVG Export Plug-In . SVG Version: 6.00 Build 0)  -->
<svg version="1.1" id="Layer_1" xmlns="http://www.w3.org/2000/svg" xmlns:xlink="http://www.w3.org/1999/xlink" x="0px" y="0px"
	 viewBox="0 0 32 32" style="enable-background:new 0 0 32 32;" xml:space="preserve">
<style type="text/css">
	.Blue{fill:#1177D7;}
	.Black{fill:#727272;}
	.Red{fill:#D11C1C;}
	.Green{fill:#039C23;}
	.Yellow{fill:#FFB115;}
	.st0{opacity:0.5;}
</style>
<path class="Black" d="M21,2H5C4.4,2,4,2.4,4,3v26c0,0.6,0.4,1,1,1h22c0.6,0,1-0.4,1-1V9L21,2z M26,28H6V4h14v5c0,0.6,0.4,1,1,1h5
	V28z"/>
<path class="Blue" d="M17.6,21.5c-0.2-0.4-1.6-1.8-1.4-2.2c0.2-0.4,0.2-1.1-0.1-1.3c-0.3-0.1-0.7,0.1-0.7-0.2
	c-0.1-0.3-1.1-0.2-1.2-1.6c-0.1-1.5-0.6-2-1.2-2c-0.6,0-1.6,0.6-1.5,0c0-0.1,0-0.2,0-0.3c-1,1-1.6,2.5-1.6,4.1c0,3.3,2.7,6,6,6
	c0.6,0,1.1-0.1,1.6-0.2C17.6,23.1,17.8,21.8,17.6,21.5z M16,12c-1.1,0-2.2,0.3-3.1,0.9H13c1,0.2,3.1,0.7,3.1,0.3s-0.1-0.9,0.1-0.8
	c0.2,0.2,0.8,0.7,0.6,1S16,14,16.1,14.3c0.2,0.2,0.8,0.6,1,0.4s-0.1-0.9,0.2-0.8c0.3,0,1.8,0.8,1.3,1.1c-0.5,0.3-1.4,1.9-1.9,2
	c-0.5,0.1-0.9,0.2-0.8,0.6c0.2,0.5,0.5,0.2,0.7,0.3c0.1,0.1,0.1,0.4,0.3,0.6s0.4,0.1,0.7,0.1c0.3-0.1,2.5,0.9,2.3,1.4
	c-0.2,0.5-0.2,1.2-1,2.1c-0.5,0.5-0.7,1.1-0.9,1.5c2.3-0.8,4-3,4-5.6C21.9,14.7,19.2,12,16,12z"/>
</svg>
