<?xml version="1.0" encoding="utf-8"?>
<!-- Generator: Adobe Illustrator 23.0.1, SVG Export Plug-In . SVG Version: 6.00 Build 0)  -->
<svg version="1.1" id="Layer_1" xmlns="http://www.w3.org/2000/svg" xmlns:xlink="http://www.w3.org/1999/xlink" x="0px" y="0px"
	 viewBox="0 0 32 32" style="enable-background:new 0 0 32 32;" xml:space="preserve">
<style type="text/css">
	.Blue{fill:#1177D7;}
	.Black{fill:#727272;}
	.Yellow{fill:#FFB115;}
	.Red{fill:#D11C1C;}
	.Green{fill:#039C23;}
	.White{fill:#FFFFFF;}
	.st0{opacity:0.5;}
	.st1{opacity:0.75;}
	.st2{opacity:0.1;}
	.st3{opacity:0.25;}
	.st4{opacity:0.4;}
	.st5{opacity:0.55;}
	.st6{opacity:0.7;}
	.st7{opacity:0.85;}
	.st8{opacity:0.2;}
	.st9{opacity:0.3;}
	.st10{opacity:0.6;}
	.st11{opacity:0.8;}
	.st12{opacity:0.9;}
</style>
<path class="Black" d="M2,3v24c0,0.6,0.4,1,1,1h26c0.6,0,1-0.4,1-1V3c0-0.6-0.4-1-1-1H3C2.4,2,2,2.4,2,3z M28,26H4V4h24V26z"/>
<g>
	<g>
		<path class="Blue" d="M7.9,15.3c0-0.9,0.1-2.5,2.1-3c0.5-0.1,0.9-0.2,1.5-0.2c1.1,0,2.1,0.2,3.4,0.5v5.7h1V20H13l-0.1-0.4
			c-0.8,0.4-1.5,0.6-2.1,0.6c-2.3,0-2.9-1.3-2.9-3.2V15.3z M10.1,17c0,1,0.3,1.4,1.3,1.4c0.3,0,0.8-0.1,1.2-0.2V14
			c-0.4-0.1-0.9-0.1-1.2-0.1c-1.2,0-1.3,0.5-1.3,1.5V17z"/>
		<path class="Blue" d="M16,11V9.3h3.4v3.1c0.4-0.1,1-0.3,1.8-0.3c1.9,0,3,1,3,3.2v1.5c0,1.9-0.6,3.3-3.5,3.3c-1,0-2.2-0.1-3.5-0.3
			V11H16z M19.3,18.3c0.4,0.1,0.9,0.1,1.2,0.1c1,0,1.3-0.4,1.3-1.4v-1.7c0-1.1-0.4-1.4-1.3-1.4c-0.5,0-0.9,0.1-1.2,0.1V18.3z"/>
	</g>
</g>
</svg>
