<?xml version="1.0" encoding="utf-8"?>
<!-- Generator: Adobe Illustrator 24.3.0, SVG Export Plug-In . SVG Version: 6.00 Build 0)  -->
<svg version="1.1" id="Layer_1" xmlns="http://www.w3.org/2000/svg" xmlns:xlink="http://www.w3.org/1999/xlink" x="0px" y="0px"
	 viewBox="0 0 32 32" style="enable-background:new 0 0 32 32;" xml:space="preserve">
<style type="text/css">
	.Yellow{fill:#FFB115;}
	.Red{fill:#D11C1C;}
	.Black{fill:#727272;}
	.st0{opacity:0.5;}
	.st1{opacity:0.25;}
	.st2{opacity:0.75;}
</style>
<g class="st0">
	<polygon class="Black" points="30,28 4,28 4,2 2,2 2,30 30,30 	"/>
</g>
<rect x="6" y="4" class="Yellow" width="6" height="6"/>
<path class="Red" d="M20,10h-6V4h6V10z M28,4h-6v6h6V4z M12,12H6v6h6V12z M20,12h-6v6h6V12z M28,12h-6v6h6V12z M12,20H6v6h6V20z
	 M20,20h-6v6h6V20z M28,20h-6v6h6V20z"/>
<g class="st1">
	<path class="Yellow" d="M28,18h-6v-6h6V18z M20,20h-6v6h6V20z"/>
</g>
<g class="st0">
	<path class="Yellow" d="M28,10h-6V4h6V10z M20,12h-6v6h6V12z M12,20H6v6h6V20z"/>
</g>
<g class="st2">
	<path class="Yellow" d="M20,10h-6V4h6V10z M12,12H6v6h6V12z"/>
</g>
</svg>
