<?xml version="1.0" encoding="utf-8"?>
<!-- Generator: Adobe Illustrator 24.3.0, SVG Export Plug-In . SVG Version: 6.00 Build 0)  -->
<svg version="1.1" id="Layer_1" xmlns="http://www.w3.org/2000/svg" xmlns:xlink="http://www.w3.org/1999/xlink" x="0px" y="0px"
	 viewBox="0 0 32 32" style="enable-background:new 0 0 32 32;" xml:space="preserve">
<style type="text/css">
	.Blue{fill:#1177D7;}
	.Black{fill:#727272;}
	.Red{fill:#D11C1C;}
	.Green{fill:#039C23;}
	.Yellow{fill:#FFB115;}
	.st0{opacity:0.5;}
	.st1{fill:#FFFFFF;}
</style>
<path class="Red" d="M18,24c0-4,3-7.4,6.9-7.9c0.7-1.5,1.1-3,1.1-4.1c0-5.5-4.5-10-10-10S6,6.5,6,12s10,18,10,18s1.1-1.3,2.5-3.3
	C18.2,25.9,18,25,18,24z M12,12c0-2.2,1.8-4,4-4s4,1.8,4,4s-1.8,4-4,4S12,14.2,12,12z"/>
<path class="Blue" d="M27.6,27.5c-0.2-0.4-1.6-1.8-1.4-2.2c0.2-0.4,0.2-1.1-0.1-1.3c-0.3-0.1-0.7,0.1-0.7-0.2
	c-0.1-0.3-1.1-0.2-1.2-1.6c-0.1-1.5-0.6-2-1.2-2c-0.6,0-1.6,0.6-1.5,0c0-0.1,0-0.2,0-0.3c-1,1-1.6,2.5-1.6,4.1c0,3.3,2.7,6,6,6
	c0.6,0,1.1-0.1,1.6-0.2C27.6,29.1,27.8,27.8,27.6,27.5z M26,18c-1.1,0-2.2,0.3-3.1,0.9H23c1,0.2,3.1,0.7,3.1,0.3
	c0-0.4-0.1-0.9,0.1-0.8c0.2,0.2,0.8,0.7,0.6,1S26,20,26.1,20.3c0.2,0.2,0.8,0.6,1,0.4s-0.1-0.9,0.2-0.8c0.3,0,1.8,0.8,1.3,1.1
	c-0.5,0.3-1.4,1.9-1.9,2c-0.5,0.1-0.9,0.2-0.8,0.6c0.2,0.5,0.5,0.2,0.7,0.3c0.1,0.1,0.1,0.4,0.3,0.6s0.4,0.1,0.7,0.1
	c0.3-0.1,2.5,0.9,2.3,1.4c-0.2,0.5-0.2,1.2-1,2.1c-0.5,0.5-0.7,1.1-0.9,1.5c2.3-0.8,4-3,4-5.6C31.9,20.7,29.2,18,26,18z"/>
</svg>
